<svg width="20" height="11" viewBox="0 0 20 11" fill="none" xmlns="http://www.w3.org/2000/svg">
<g clip-path="url(#clip0_2_168)">
<path d="M18.6798 4.30437L15.2029 0.873234C14.7257 0.428457 13.9758 0.428457 13.4986 0.809694C13.0213 1.25447 13.0213 1.95341 13.4304 2.39818L15.4075 4.36791H1.22714C0.545397 4.36791 0 4.87623 0 5.51162C0 6.14702 0.545397 6.65534 1.22714 6.65534H15.4756L13.4986 8.62506C13.0213 9.06984 13.0895 9.76877 13.5667 10.2136C13.7713 10.4042 14.1121 10.5312 14.3848 10.5312C14.7257 10.5312 14.9984 10.4042 15.2711 10.2136L18.748 6.78241C19.3616 6.01994 19.3616 5.00331 18.6798 4.30437Z" fill="#3A5F56"/>
</g>
<defs>
<clipPath id="clip0_2_168">
<rect width="20" height="10" fill="white" transform="translate(0 0.53125)"/>
</clipPath>
</defs>
</svg>
