<svg width="24" height="24" viewBox="0 0 24 24" fill="none" xmlns="http://www.w3.org/2000/svg">
<path d="M14.0299 5.48L15.3697 3.2C15.4509 3.08 15.4509 2.92 15.3697 2.8L13.8675 0.2C13.7863 0.08 13.6645 0 13.5021 0H10.4573C10.2949 0 10.1731 0.08 10.0919 0.2L8.63034 2.8C8.54914 2.92 8.54914 3.08 8.63034 3.2L9.97009 5.48C5.70726 6.4 2.5 10.16 2.5 14.64C2.5 19.8 6.76282 24 12 24C17.2372 24 21.5 19.8 21.5 14.64C21.5 10.16 18.2927 6.4 14.0299 5.48ZM10.7415 0.8H13.2991L14.5577 3L13.2991 5.2H10.7415L9.48291 3L10.7415 0.8ZM12 23.2C7.2094 23.2 3.31197 19.36 3.31197 14.64C3.31197 9.92 7.2094 6.08 12 6.08C16.7906 6.08 20.688 9.92 20.688 14.64C20.688 19.36 16.7906 23.2 12 23.2Z" fill="#3A5F56"/>
</svg>
