<svg width="157" height="25" viewBox="0 0 157 25" fill="none" xmlns="http://www.w3.org/2000/svg">
<g clip-path="url(#clip0_2_294)">
<path d="M67.6452 0H46.3548C45.5806 0 45 0.619355 45 1.35484V22.6452C45 23.4194 45.6194 24 46.3548 24H57.8129V14.671H54.7161V11.071H57.8129V8.4C57.8129 5.30323 59.671 3.6 62.4581 3.6C63.3871 3.6 64.3161 3.63871 65.2452 3.75484V6.96774H63.3871C61.9161 6.96774 61.6065 7.66452 61.6065 8.70968V10.9935H65.129L64.6258 14.6323H61.529V23.8452H67.6452C68.4194 23.8452 69 23.2645 69 22.4903V1.35484C68.9613 0.580645 68.3419 0 67.6452 0Z" fill="white"/>
</g>
<path d="M140.471 22.1645C149.606 22.1645 154.561 14.6161 154.561 8.07419C154.561 7.91936 154.561 7.64839 154.523 7.41613C155.49 6.71935 156.342 5.82903 157 4.86129C156.071 5.2871 155.142 5.51935 154.174 5.63548C155.219 5.01613 155.994 4.04839 156.342 2.8871C155.374 3.42903 154.368 3.85484 153.168 4.0871C152.239 3.11935 151 2.5 149.568 2.5C146.819 2.5 144.574 4.74516 144.574 7.49355C144.574 7.88065 144.613 8.26774 144.69 8.65484C140.703 8.38387 137.065 6.40968 134.587 3.42903C134.161 4.20323 133.929 5.01613 133.929 5.90645C133.929 7.64839 134.819 9.11935 136.174 10.0097C135.361 9.97097 134.587 9.73871 133.929 9.39032C133.929 9.42903 133.929 9.42903 133.929 9.42903C133.929 11.7903 135.632 13.8419 137.877 14.3065C137.452 14.4226 136.987 14.4613 136.639 14.4613C136.329 14.4613 135.981 14.4226 135.71 14.3452C136.368 16.3194 138.187 17.7516 140.355 17.7903C138.652 19.1065 136.523 19.9194 134.239 19.9194C133.774 19.9968 133.387 19.9194 133 19.8806C135.09 21.3516 137.684 22.1645 140.471 22.1645Z" fill="white"/>
<g clip-path="url(#clip1_2_294)">
<path d="M23.3224 0H2.75001C1.77778 0 1 0.774194 1 1.74194V22.2581C1 23.1871 1.77778 24 2.75001 24H23.2446C24.2168 24 24.9946 23.2258 24.9946 22.2581V1.70323C25.0724 0.774194 24.2946 0 23.3224 0ZM8.11672 20.4H4.57781V8.98065H8.11672V20.4ZM6.32782 7.39355C5.16114 7.39355 4.26669 6.46452 4.26669 5.34194C4.26669 4.21935 5.20003 3.29032 6.32782 3.29032C7.45561 3.29032 8.38895 4.21935 8.38895 5.34194C8.38895 6.46452 7.53338 7.39355 6.32782 7.39355ZM21.5335 20.4H17.9946V14.8645C17.9946 13.5484 17.9557 11.8065 16.1279 11.8065C14.2612 11.8065 13.989 13.2774 13.989 14.7484V20.4H10.4501V8.98065H13.9112V10.5677H13.9501C14.4557 9.63871 15.5834 8.70968 17.3335 8.70968C20.9502 8.70968 21.6113 11.0323 21.6113 14.2065V20.4H21.5335Z" fill="white"/>
</g>
<g clip-path="url(#clip2_2_294)">
<path d="M102.894 0.000976562C104.542 0.0042081 105.012 0.0180576 106.052 0.0774124C107.37 0.116122 108.222 0.30967 108.997 0.619348C109.772 0.929025 110.431 1.31612 111.09 1.97419C111.749 2.63225 112.175 3.29032 112.447 4.10322C112.718 4.91612 112.95 5.80644 112.989 7.04515C113.028 8.36128 112.95 8.78709 112.95 12.0774L112.95 13.7333C112.95 13.8092 112.95 13.8828 112.95 13.9541L112.949 14.3562C112.947 15.6766 112.939 16.1264 112.912 16.9935C112.873 18.3097 112.64 19.1613 112.369 19.9355C112.098 20.7097 111.671 21.4064 111.013 22.0645C110.354 22.7226 109.695 23.1484 108.881 23.4193C108.067 23.6903 107.253 23.9226 105.936 23.9613C105.584 23.9716 105.302 23.9792 105.014 23.9847L104.796 23.9885C104.427 23.9943 104.021 23.9971 103.433 23.9986L103.056 23.9993C102.99 23.9993 102.921 23.9994 102.85 23.9995L99.3208 23.9994C97.5028 23.9969 97.0687 23.9845 96.0146 23.9226C94.6969 23.8839 93.8443 23.6516 93.0692 23.3806C92.2941 23.1097 91.5965 22.6839 90.9377 22.0258C90.2789 21.3677 89.8526 20.7097 89.5813 19.8968C89.31 19.0839 89.0775 18.271 89.0387 16.9548C89.031 16.6916 89.0248 16.4671 89.0198 16.25L89.0133 15.926C89.0069 15.5636 89.0036 15.1783 89.0019 14.6255L89.001 14.2725C89.0009 14.21 89.0008 14.1454 89.0007 14.0788L89.0005 11.38C89.0052 8.65892 89.0413 8.27354 89.0775 7.04515C89.1162 5.72903 89.31 4.87741 89.6201 4.10322C89.8913 3.29032 90.3176 2.63225 90.9765 1.97419C91.6353 1.31612 92.2941 0.851606 93.108 0.580638C93.9218 0.30967 94.7357 0.0774124 96.0533 0.0387027C96.9757 0.011606 97.4233 0.00347692 98.7388 0.00103821L102.894 0.000976562ZM103.092 2.20718H99.0131C98.1596 2.20837 97.653 2.2115 97.1937 2.21972L96.984 2.22389C96.7407 2.2292 96.4977 2.23612 96.2084 2.24515C95.007 2.28386 94.3869 2.51612 93.9606 2.67096C93.418 2.90322 93.0305 3.13548 92.6042 3.56128C92.2166 3.94838 91.9453 4.37419 91.7128 4.91612C91.5578 5.38064 91.3253 5.99999 91.2865 7.16128C91.2775 7.45032 91.2705 7.69298 91.2652 7.936L91.261 8.14548C91.2535 8.56896 91.2502 9.0327 91.2488 9.77206L91.2481 10.3819C91.248 10.4563 91.248 10.5329 91.2479 10.612L91.2478 16.8C91.2865 18 91.519 18.6193 91.6741 19.0452C91.9453 19.5871 92.1779 19.9742 92.6042 20.4C92.9917 20.8258 93.418 21.0968 93.9606 21.329C94.4256 21.4839 95.0457 21.7161 96.2084 21.7548C97.0636 21.7815 97.5318 21.7898 98.7824 21.7924L99.402 21.7932C99.4776 21.7933 99.5555 21.7933 99.6361 21.7933L105.858 21.7935C107.06 21.7548 107.68 21.5226 108.106 21.3677C108.649 21.0968 109.036 20.8645 109.462 20.4387C109.889 20.0516 110.16 19.6258 110.393 19.0839C110.548 18.6193 110.78 18 110.819 16.8387C110.827 16.591 110.834 16.3773 110.842 16.1683L110.849 15.9597C110.876 15.1926 110.896 14.3561 110.896 12L110.896 10.3819C110.896 10.3076 110.896 10.2356 110.896 10.1658L110.895 9.77206C110.893 8.47819 110.885 8.02838 110.858 7.16128C110.819 5.96128 110.586 5.34193 110.431 4.91612C110.16 4.37419 109.928 3.98709 109.501 3.56128C109.114 3.17419 108.687 2.90322 108.145 2.67096C107.68 2.51612 107.06 2.28386 105.897 2.24515C105.608 2.23612 105.365 2.2292 105.121 2.22389L104.912 2.21972C104.452 2.2115 103.946 2.20837 103.092 2.20718ZM101.014 5.84515C104.463 5.84515 107.215 8.55483 107.215 12C107.215 15.4452 104.386 18.1548 101.014 18.1548C97.6423 18.1548 94.8519 15.4452 94.8519 12C94.8519 8.63225 97.5648 5.84515 101.014 5.84515ZM101.014 7.97419C98.8049 7.97419 96.9834 9.79354 96.9834 12C96.9834 14.2064 98.7662 16.0258 101.014 16.0258C103.262 16.0258 105.044 14.2452 105.044 12C105.044 9.75483 103.262 7.97419 101.014 7.97419ZM107.486 4.14193C108.278 4.14193 108.92 4.78317 108.92 5.57419C108.92 6.3652 108.278 7.00644 107.486 7.00644C106.694 7.00644 106.052 6.3652 106.052 5.57419C106.052 4.78317 106.694 4.14193 107.486 4.14193Z" fill="white"/>
</g>
<defs>
<clipPath id="clip0_2_294">
<rect width="24" height="24" fill="white" transform="translate(45)"/>
</clipPath>
<clipPath id="clip1_2_294">
<rect width="24" height="24" fill="white" transform="translate(1)"/>
</clipPath>
<clipPath id="clip2_2_294">
<rect width="24" height="24" fill="white" transform="translate(89)"/>
</clipPath>
</defs>
</svg>
